<svg width="304" height="83" viewBox="0 0 304 83" fill="none" xmlns="http://www.w3.org/2000/svg">
<path d="M70.7652 4H9.9784C8.74452 4 7.74372 5.00031 7.74372 6.23467V30.0757H5.54419C2.48694 30.0757 0 32.5631 0 35.6198V67.8691C0 70.9264 2.48748 73.4133 5.54419 73.4133H14.4127C17.47 73.4133 19.9569 70.9264 19.9569 67.8691V49.7027H32.6277L28.7638 53.5666C27.8912 54.4392 27.8912 55.854 28.7638 56.7271C29.2001 57.1634 29.772 57.3815 30.3441 57.3815C30.9161 57.3815 31.488 57.1634 31.9239 56.7271L38.9477 49.7032H41.7948L48.8186 56.7271C49.2549 57.1634 49.8269 57.3815 50.3984 57.3815C50.9704 57.3815 51.5424 57.1634 51.9787 56.7271C52.8513 55.8545 52.8513 54.4397 51.9787 53.5666L48.1148 49.7027L70.7653 49.7032C71.9997 49.7032 73 48.7029 73 47.4685V6.2348C73 5.00092 71.9997 4.00012 70.7653 4.00012L70.7652 4ZM15.4868 67.8692C15.4868 68.4519 14.9946 68.944 14.412 68.944L5.54343 68.9446C4.96081 68.9446 4.46864 68.4524 4.46864 67.8698V35.6205C4.46864 35.0379 4.96081 34.5457 5.54343 34.5457H14.412C14.9946 34.5457 15.4868 35.0379 15.4868 35.6205V67.8692ZM68.53 45.2337H19.9558V35.6213C19.9558 32.5641 17.4684 30.0772 14.4117 30.0772L12.2121 30.0766V8.4695H68.5298L68.53 45.2337Z" fill="white"/>
<path d="M27.427 25.8816C27.999 25.8816 28.571 25.6634 29.0073 25.2266L39.1737 15.0602C40.0463 14.1877 40.0463 12.7729 39.1737 11.8997C38.3011 11.0272 36.8863 11.0272 36.0132 11.8997L25.8468 22.0667C24.9742 22.9393 24.9742 24.354 25.8468 25.2272C26.2831 25.6629 26.8551 25.8816 27.4271 25.8816L27.427 25.8816Z" fill="#E30813"/>
<path d="M31.0611 39.4727C31.4974 39.909 32.0693 40.1277 32.6408 40.1277C33.2128 40.1277 33.7848 39.9095 34.2212 39.4727L56.4603 17.2336C57.3329 16.361 57.3329 14.9462 56.4603 14.0731C55.5877 13.2005 54.1729 13.2005 53.2998 14.0731L31.0607 36.3122C30.1875 37.1848 30.1881 38.6001 31.0607 39.4727H31.0611Z" fill="#E30813"/>
<path d="M47.0754 42.9188C47.5117 43.3551 48.0837 43.5733 48.6552 43.5733C49.2272 43.5733 49.7992 43.3551 50.2355 42.9188L63.2144 29.9394C64.087 29.0668 64.087 27.652 63.2144 26.7789C62.3418 25.9063 60.927 25.9063 60.0539 26.7789L47.075 39.7578C46.2024 40.6314 46.2024 42.0463 47.0756 42.9188H47.0754Z" fill="#E30813"/>
<path d="M9.97842 40.2709C10.5669 40.2709 11.1421 40.0315 11.5591 39.6154C11.9747 39.1998 12.2131 38.6231 12.2131 38.0362C12.2131 37.4477 11.9747 36.8709 11.5591 36.4554C11.1436 36.0399 10.5668 35.8015 9.97842 35.8015C9.38995 35.8015 8.81318 36.0399 8.39769 36.4554C7.98214 36.871 7.74377 37.4478 7.74377 38.0362C7.74377 38.623 7.98214 39.1998 8.39769 39.6154C8.81484 40.0315 9.39002 40.2709 9.97842 40.2709Z" fill="#E30813"/>
<path d="M9.97842 62.3534C9.38995 62.3534 8.81477 62.5923 8.39769 63.0078C7.98214 63.425 7.74377 64.0002 7.74377 64.5882C7.74377 65.1766 7.98214 65.7518 8.39769 66.1689C8.81484 66.5844 9.39161 66.8228 9.97842 66.8228C10.5669 66.8228 11.1421 66.5844 11.5591 66.1689C11.9747 65.7533 12.2131 65.1766 12.2131 64.5882C12.2131 64.0002 11.9747 63.4245 11.5591 63.0078C11.1415 62.5918 10.5668 62.3534 9.97842 62.3534Z" fill="#E30813"/>
<path d="M12.5514 42.5456H7.40521C6.1708 42.5456 5.17053 43.5465 5.17053 44.7803C5.17053 46.0147 6.17084 47.015 7.40521 47.015H12.5514C13.7853 47.015 14.7861 46.0147 14.7861 44.7803C14.7861 43.5459 13.7852 42.5456 12.5514 42.5456Z" fill="#E30813"/>
<path d="M9.97845 49.8765C8.74404 49.8765 7.74377 50.8773 7.74377 52.1111V57.2573C7.74377 58.4917 8.74408 59.492 9.97845 59.492C11.2123 59.492 12.2131 58.4917 12.2131 57.2573V52.1111C12.2131 50.8773 11.2123 49.8765 9.97845 49.8765Z" fill="#E30813"/>
<line x1="27" y1="63" x2="290" y2="63" stroke="#E30813" stroke-width="4" stroke-linecap="round"/>
<path d="M114.398 27.696H119.618V56H114.398V53.738C113.895 55.246 112.697 56 110.802 56H108.714C105.234 56 103.494 54.2987 103.494 50.896V27.696H108.714V50.084C108.714 50.78 108.83 51.244 109.062 51.476C109.294 51.6693 109.758 51.766 110.454 51.766H112.484C113.18 51.766 113.663 51.6113 113.934 51.302C114.243 50.9927 114.398 50.4707 114.398 49.736V27.696ZM136.046 31.93H132.16V49.852C132.16 50.548 132.256 51.012 132.45 51.244C132.682 51.4373 133.146 51.534 133.842 51.534H136.046V56H132.334C128.699 56 126.882 54.2987 126.882 50.896V31.93H124.214V27.696H126.882V22.882H132.16V27.696H136.046V31.93ZM169.965 27.696H171.995C175.513 27.696 177.273 29.4167 177.273 32.858V56H172.053V33.612C172.053 32.916 171.937 32.4713 171.705 32.278C171.473 32.046 171.009 31.93 170.313 31.93H168.283C167.587 31.93 167.084 32.0847 166.775 32.394C166.504 32.7033 166.369 33.2253 166.369 33.96V56H161.149V17.198H166.369V29.958C166.871 28.45 168.07 27.696 169.965 27.696ZM189.35 27.696H195.034C198.669 27.696 200.486 29.4167 200.486 32.858V43.472H189.06V50.2C189.06 50.8573 189.176 51.302 189.408 51.534C189.64 51.766 190.104 51.882 190.8 51.882H193.468C194.164 51.882 194.628 51.766 194.86 51.534C195.092 51.302 195.208 50.838 195.208 50.142V47.822H200.312V50.896C200.312 54.2987 198.514 56 194.918 56H189.35C185.754 56 183.956 54.2987 183.956 50.896V32.858C183.956 29.4167 185.754 27.696 189.35 27.696ZM189.06 39.644H195.324V33.496C195.324 32.8387 195.208 32.394 194.976 32.162C194.783 31.93 194.338 31.814 193.642 31.814H190.8C190.104 31.814 189.64 31.93 189.408 32.162C189.176 32.394 189.06 32.8387 189.06 33.496V39.644ZM237.514 27.696H242.734V56H237.514V53.738C237.012 55.246 235.813 56 233.918 56H231.83C228.35 56 226.61 54.2987 226.61 50.896V32.858C226.61 29.4167 228.35 27.696 231.83 27.696H233.918C235.813 27.696 237.012 28.45 237.514 29.958V27.696ZM233.57 51.766H235.6C236.296 51.766 236.78 51.6113 237.05 51.302C237.36 50.9927 237.514 50.4707 237.514 49.736V33.96C237.514 33.2253 237.36 32.7033 237.05 32.394C236.78 32.0847 236.296 31.93 235.6 31.93H233.57C232.874 31.93 232.41 32.046 232.178 32.278C231.946 32.4713 231.83 32.916 231.83 33.612V50.084C231.83 50.78 231.946 51.244 232.178 51.476C232.41 51.6693 232.874 51.766 233.57 51.766ZM258.415 27.696H260.445C263.963 27.696 265.723 29.4167 265.723 32.858V50.896C265.723 54.2987 263.963 56 260.445 56H258.415C256.52 56 255.321 55.246 254.819 53.738V64.004H249.599V27.696H254.819V29.958C255.321 28.45 256.52 27.696 258.415 27.696ZM260.503 50.084V33.612C260.503 32.916 260.387 32.4713 260.155 32.278C259.923 32.046 259.459 31.93 258.763 31.93H256.733C256.037 31.93 255.534 32.0847 255.225 32.394C254.954 32.7033 254.819 33.2253 254.819 33.96V49.736C254.819 50.4707 254.954 50.9927 255.225 51.302C255.534 51.6113 256.037 51.766 256.733 51.766H258.763C259.459 51.766 259.923 51.6693 260.155 51.476C260.387 51.244 260.503 50.78 260.503 50.084ZM277.517 27.696H283.201C286.836 27.696 288.653 29.4167 288.653 32.858V43.472H277.227V50.2C277.227 50.8573 277.343 51.302 277.575 51.534C277.807 51.766 278.271 51.882 278.967 51.882H281.635C282.331 51.882 282.795 51.766 283.027 51.534C283.259 51.302 283.375 50.838 283.375 50.142V47.822H288.479V50.896C288.479 54.2987 286.681 56 283.085 56H277.517C273.921 56 272.123 54.2987 272.123 50.896V32.858C272.123 29.4167 273.921 27.696 277.517 27.696ZM277.227 39.644H283.491V33.496C283.491 32.8387 283.375 32.394 283.143 32.162C282.95 31.93 282.505 31.814 281.809 31.814H278.967C278.271 31.814 277.807 31.93 277.575 32.162C277.343 32.394 277.227 32.8387 277.227 33.496V39.644Z" fill="white"/>
<path d="M99.23 18.832H93.296V10.748C93.296 9.60133 93.124 8.88466 92.78 8.598C92.436 8.254 91.7193 8.082 90.63 8.082H85.9C84.7533 8.082 84.008 8.254 83.664 8.598C83.3773 8.88466 83.234 9.60133 83.234 10.748V48.846C83.234 49.9353 83.3773 50.652 83.664 50.996C84.008 51.34 84.7533 51.512 85.9 51.512H90.63C91.7193 51.512 92.436 51.34 92.78 50.996C93.124 50.652 93.296 49.9353 93.296 48.846V40.762H99.23V49.792C99.23 54.3213 96.9653 56.586 92.436 56.586H84.094C79.5647 56.586 77.3 54.3213 77.3 49.792V9.802C77.3 5.27266 79.5647 3.008 84.094 3.008H92.436C96.9653 3.008 99.23 5.27266 99.23 9.802V18.832Z" fill="white"/>
<path d="M163.2 15V6.5" stroke="white" stroke-width="4.5"/>
<path d="M144.7 17.5V7" stroke="white" stroke-width="4.5"/>
<path d="M165.478 2.508V7.582H156.878V56H151.03V7.582H142.43V2.508H165.478Z" fill="white"/>
<path d="M153.28 69.5V52" stroke="white" stroke-width="4.5"/>
<path d="M154.6 69.5V52" stroke="white" stroke-width="4.5"/>
<path d="M230.2 19V6.5" stroke="white" stroke-width="4.5"/>
<path d="M211.7 24.5V7" stroke="white" stroke-width="4.5"/>
<path d="M221.6 63.5V46" stroke="white" stroke-width="4.5"/>
<path d="M220.3 63.5V46" stroke="white" stroke-width="4.5"/>
<path d="M232.478 2.508V7.582H223.878V56H218.03V7.582H209.43V2.508H232.478Z" fill="white"/>
</svg>
