<svg width="1174" height="283" viewBox="0 0 1174 283" fill="none" xmlns="http://www.w3.org/2000/svg">
<path d="M324.152 186.92C317.923 186.92 312.248 185.896 307.128 183.848C302.008 181.8 297.613 178.813 293.944 174.888C290.275 170.963 287.416 166.141 285.368 160.424C283.405 154.621 282.424 148.008 282.424 140.584C282.424 133.16 283.533 126.589 285.752 120.872C288.056 115.069 291.128 110.205 294.968 106.28C298.808 102.355 303.288 99.368 308.408 97.32C313.528 95.272 318.989 94.248 324.792 94.248C328.461 94.248 331.747 94.504 334.648 95.016C337.635 95.528 340.195 96.1253 342.328 96.808C344.547 97.4907 346.339 98.1733 347.704 98.856C349.069 99.5387 350.008 100.051 350.52 100.392L346.936 110.632C346.168 110.12 345.059 109.565 343.608 108.968C342.157 108.371 340.493 107.773 338.616 107.176C336.824 106.579 334.819 106.109 332.6 105.768C330.467 105.341 328.291 105.128 326.072 105.128C321.379 105.128 317.155 105.939 313.4 107.56C309.645 109.181 306.445 111.528 303.8 114.6C301.155 117.672 299.107 121.427 297.656 125.864C296.291 130.216 295.608 135.123 295.608 140.584C295.608 145.875 296.205 150.696 297.4 155.048C298.68 159.4 300.557 163.155 303.032 166.312C305.507 169.384 308.579 171.773 312.248 173.48C316.003 175.187 320.355 176.04 325.304 176.04C331.021 176.04 335.757 175.443 339.512 174.248C343.267 173.053 346.083 171.987 347.96 171.048L351.16 181.288C350.563 181.715 349.496 182.269 347.96 182.952C346.424 183.549 344.504 184.147 342.2 184.744C339.896 185.341 337.208 185.853 334.136 186.28C331.064 186.707 327.736 186.92 324.152 186.92ZM415.107 183.08C412.376 183.763 408.75 184.488 404.227 185.256C399.79 186.024 394.627 186.408 388.739 186.408C383.619 186.408 379.31 185.683 375.811 184.232C372.312 182.696 369.496 180.563 367.363 177.832C365.23 175.101 363.694 171.901 362.755 168.232C361.816 164.477 361.347 160.339 361.347 155.816V118.44H373.251V153.256C373.251 161.363 374.531 167.165 377.091 170.664C379.651 174.163 383.96 175.912 390.019 175.912C391.299 175.912 392.622 175.869 393.987 175.784C395.352 175.699 396.632 175.613 397.827 175.528C399.022 175.357 400.088 175.229 401.027 175.144C402.051 174.973 402.776 174.803 403.203 174.632V118.44H415.107V183.08ZM446.751 118.44H471.967V128.424H446.751V159.144C446.751 162.472 447.007 165.245 447.519 167.464C448.031 169.597 448.799 171.304 449.823 172.584C450.847 173.779 452.127 174.632 453.663 175.144C455.199 175.656 456.991 175.912 459.039 175.912C462.623 175.912 465.482 175.528 467.615 174.76C469.834 173.907 471.37 173.309 472.223 172.968L474.527 182.824C473.332 183.421 471.242 184.147 468.255 185C465.268 185.939 461.855 186.408 458.015 186.408C453.492 186.408 449.738 185.853 446.751 184.744C443.85 183.549 441.503 181.8 439.711 179.496C437.919 177.192 436.639 174.376 435.871 171.048C435.188 167.635 434.847 163.709 434.847 159.272V99.88L446.751 97.832V118.44ZM476.363 198.568H540.363V208.68H476.363V198.568ZM610.147 96.296V107.048H582.243V185H569.827V107.048H541.923V96.296H610.147ZM622.49 185V87.72L634.394 85.672V119.72C636.613 118.867 638.959 118.227 641.434 117.8C643.994 117.288 646.511 117.032 648.986 117.032C654.277 117.032 658.671 117.8 662.17 119.336C665.669 120.787 668.442 122.877 670.49 125.608C672.623 128.253 674.117 131.453 674.97 135.208C675.823 138.963 676.25 143.101 676.25 147.624V185H664.346V150.184C664.346 146.088 664.047 142.589 663.45 139.688C662.938 136.787 662.042 134.44 660.762 132.648C659.482 130.856 657.775 129.576 655.642 128.808C653.509 127.955 650.863 127.528 647.706 127.528C646.426 127.528 645.103 127.613 643.738 127.784C642.373 127.955 641.05 128.168 639.77 128.424C638.575 128.595 637.466 128.808 636.442 129.064C635.503 129.32 634.821 129.533 634.394 129.704V185H622.49ZM691.903 151.848C691.903 145.96 692.756 140.84 694.463 136.488C696.17 132.051 698.431 128.381 701.247 125.48C704.063 122.579 707.306 120.403 710.975 118.952C714.644 117.501 718.399 116.776 722.239 116.776C731.199 116.776 738.068 119.592 742.847 125.224C747.626 130.771 750.015 139.261 750.015 150.696C750.015 151.208 750.015 151.891 750.015 152.744C750.015 153.512 749.972 154.237 749.887 154.92H704.319C704.831 161.832 706.836 167.08 710.335 170.664C713.834 174.248 719.295 176.04 726.719 176.04C730.9 176.04 734.399 175.699 737.215 175.016C740.116 174.248 742.292 173.523 743.743 172.84L745.407 182.824C743.956 183.592 741.396 184.403 737.727 185.256C734.143 186.109 730.047 186.536 725.439 186.536C719.636 186.536 714.602 185.683 710.335 183.976C706.154 182.184 702.698 179.752 699.967 176.68C697.236 173.608 695.188 169.981 693.823 165.8C692.543 161.533 691.903 156.883 691.903 151.848ZM737.599 145.32C737.684 139.944 736.319 135.549 733.503 132.136C730.772 128.637 726.975 126.888 722.111 126.888C719.38 126.888 716.948 127.443 714.815 128.552C712.767 129.576 711.018 130.941 709.567 132.648C708.116 134.355 706.964 136.317 706.111 138.536C705.343 140.755 704.831 143.016 704.575 145.32H737.599ZM756.363 198.568H820.363V208.68H756.363V198.568ZM890.147 96.296V107.048H862.243V185H849.827V107.048H821.923V96.296H890.147ZM919.268 176.424C922.084 176.424 924.559 176.381 926.692 176.296C928.911 176.125 930.745 175.869 932.196 175.528V155.688C931.343 155.261 929.935 154.92 927.972 154.664C926.095 154.323 923.791 154.152 921.06 154.152C919.268 154.152 917.348 154.28 915.3 154.536C913.337 154.792 911.503 155.347 909.796 156.2C908.175 156.968 906.809 158.077 905.7 159.528C904.591 160.893 904.036 162.728 904.036 165.032C904.036 169.299 905.401 172.285 908.132 173.992C910.863 175.613 914.575 176.424 919.268 176.424ZM918.244 116.776C923.023 116.776 927.033 117.416 930.276 118.696C933.604 119.891 936.249 121.64 938.212 123.944C940.26 126.163 941.711 128.851 942.564 132.008C943.417 135.08 943.844 138.493 943.844 142.248V183.848C942.82 184.019 941.369 184.275 939.492 184.616C937.7 184.872 935.652 185.128 933.348 185.384C931.044 185.64 928.527 185.853 925.796 186.024C923.151 186.28 920.505 186.408 917.86 186.408C914.105 186.408 910.649 186.024 907.492 185.256C904.335 184.488 901.604 183.293 899.3 181.672C896.996 179.965 895.204 177.747 893.924 175.016C892.644 172.285 892.004 169 892.004 165.16C892.004 161.491 892.729 158.333 894.18 155.688C895.716 153.043 897.764 150.909 900.324 149.288C902.884 147.667 905.871 146.472 909.284 145.704C912.697 144.936 916.281 144.552 920.036 144.552C921.231 144.552 922.468 144.637 923.748 144.808C925.028 144.893 926.223 145.064 927.332 145.32C928.527 145.491 929.551 145.661 930.404 145.832C931.257 146.003 931.855 146.131 932.196 146.216V142.888C932.196 140.925 931.983 139.005 931.556 137.128C931.129 135.165 930.361 133.459 929.252 132.008C928.143 130.472 926.607 129.277 924.644 128.424C922.767 127.485 920.292 127.016 917.22 127.016C913.295 127.016 909.839 127.315 906.852 127.912C903.951 128.424 901.775 128.979 900.324 129.576L898.916 119.72C900.452 119.037 903.012 118.397 906.596 117.8C910.18 117.117 914.063 116.776 918.244 116.776ZM1009.82 151.848C1009.82 144.083 1007.9 138.109 1004.06 133.928C1000.22 129.747 995.103 127.656 988.703 127.656C985.119 127.656 982.303 127.784 980.255 128.04C978.292 128.296 976.714 128.595 975.519 128.936V170.92C976.97 172.115 979.06 173.267 981.791 174.376C984.522 175.485 987.508 176.04 990.751 176.04C994.164 176.04 997.066 175.443 999.455 174.248C1001.93 172.968 1003.94 171.261 1005.47 169.128C1007.01 166.909 1008.12 164.349 1008.8 161.448C1009.48 158.461 1009.82 155.261 1009.82 151.848ZM1022.24 151.848C1022.24 156.883 1021.56 161.533 1020.19 165.8C1018.91 170.067 1016.99 173.736 1014.43 176.808C1011.87 179.88 1008.71 182.269 1004.96 183.976C1001.29 185.683 997.066 186.536 992.287 186.536C988.447 186.536 985.034 186.024 982.047 185C979.146 183.976 976.97 182.995 975.519 182.056V208.68H963.615V120.488C966.431 119.805 969.93 119.08 974.111 118.312C978.378 117.459 983.284 117.032 988.831 117.032C993.951 117.032 998.559 117.843 1002.66 119.464C1006.75 121.085 1010.25 123.389 1013.15 126.376C1016.05 129.363 1018.27 133.032 1019.81 137.384C1021.43 141.651 1022.24 146.472 1022.24 151.848ZM1035.28 151.848C1035.28 145.96 1036.13 140.84 1037.84 136.488C1039.54 132.051 1041.81 128.381 1044.62 125.48C1047.44 122.579 1050.68 120.403 1054.35 118.952C1058.02 117.501 1061.77 116.776 1065.61 116.776C1074.57 116.776 1081.44 119.592 1086.22 125.224C1091 130.771 1093.39 139.261 1093.39 150.696C1093.39 151.208 1093.39 151.891 1093.39 152.744C1093.39 153.512 1093.35 154.237 1093.26 154.92H1047.69C1048.21 161.832 1050.21 167.08 1053.71 170.664C1057.21 174.248 1062.67 176.04 1070.09 176.04C1074.28 176.04 1077.77 175.699 1080.59 175.016C1083.49 174.248 1085.67 173.523 1087.12 172.84L1088.78 182.824C1087.33 183.592 1084.77 184.403 1081.1 185.256C1077.52 186.109 1073.42 186.536 1068.81 186.536C1063.01 186.536 1057.98 185.683 1053.71 183.976C1049.53 182.184 1046.07 179.752 1043.34 176.68C1040.61 173.608 1038.56 169.981 1037.2 165.8C1035.92 161.533 1035.28 156.883 1035.28 151.848ZM1080.97 145.32C1081.06 139.944 1079.69 135.549 1076.88 132.136C1074.15 128.637 1070.35 126.888 1065.49 126.888C1062.76 126.888 1060.32 127.443 1058.19 128.552C1056.14 129.576 1054.39 130.941 1052.94 132.648C1051.49 134.355 1050.34 136.317 1049.49 138.536C1048.72 140.755 1048.21 143.016 1047.95 145.32H1080.97Z" fill="#D9DAE8"/>
<path d="M107.682 282.345H174.025C196.708 282.278 218.444 273.239 234.484 257.199C250.525 241.158 259.564 219.423 259.631 196.74V89.7342C259.641 81.091 263.077 72.8057 269.19 66.6924C275.301 60.5818 283.588 57.1434 292.232 57.1332H308.319H308.317C310.288 57.1332 311.885 55.5359 311.885 53.5679C311.885 51.5973 310.288 50 308.317 50H292.374C281.889 50.01 271.83 54.16 264.388 61.547C256.946 68.9368 252.724 78.9634 252.64 89.4506V196.456C252.573 217.246 244.285 237.168 229.583 251.87C214.882 266.571 194.96 274.859 174.17 274.926H146.348C171.453 265.307 192.059 246.654 204.12 222.628C216.18 198.598 218.827 170.931 211.54 145.055C204.254 119.177 187.558 96.9537 164.732 82.7526C141.904 68.5482 114.593 63.3884 88.1597 68.2845C61.7243 73.1785 38.0729 87.7761 21.8482 109.213C5.621 130.647 -2.0095 157.374 0.45353 184.148C2.91669 210.92 15.2948 235.805 35.1589 253.919C55.0256 272.034 80.9439 282.071 107.827 282.061L107.682 282.345ZM107.682 73.793C134.401 73.783 160.03 84.3897 178.93 103.279C197.826 122.168 208.445 147.79 208.45 174.507C208.453 201.226 197.839 226.853 178.947 245.742C160.053 264.636 134.429 275.248 107.712 275.245C80.9961 275.243 55.3714 264.624 36.4837 245.725C17.5947 226.828 6.9878 201.201 6.998 174.483C7.03532 147.789 17.6565 122.2 36.5309 103.325C55.4077 84.4502 80.9967 73.8286 107.689 73.7917L107.682 73.793Z" fill="#D9DAE8"/>
<path d="M308 53.5H1107.5C1116.17 53.1667 1134.5 59.3 1134.5 82.5C1134.5 105.7 1134.5 170.167 1134.5 199.5C1135.67 212 1126.5 237.6 1080.5 240C1034.5 242.4 1030.67 255 1034.5 261" stroke="#D9DAE8" stroke-width="7.15"/>
<path d="M132.363 118.767C132.363 132.399 121.311 143.448 107.679 143.448C94.0475 143.448 82.9979 132.399 82.9979 118.767C82.9979 105.135 94.0475 94.0833 107.679 94.0833C121.311 94.0833 132.363 105.135 132.363 118.767Z" fill="#D9DAE8"/>
<path d="M132.363 230.231C132.363 243.863 121.311 254.912 107.679 254.912C94.0475 254.912 82.9979 243.863 82.9979 230.231C82.9979 216.599 94.0475 205.547 107.679 205.547C121.311 205.547 132.363 216.599 132.363 230.231Z" fill="#D9DAE8"/>
<path d="M118.204 174.48C118.204 180.29 113.492 185.002 107.68 185.002C101.87 185.002 97.1577 180.29 97.1577 174.48C97.1577 168.668 101.87 163.958 107.68 163.958C113.492 163.958 118.204 168.668 118.204 174.48Z" fill="#D9DAE8"/>
<path d="M188.114 174.48C188.114 188.112 177.065 199.161 163.433 199.161C149.801 199.161 138.749 188.112 138.749 174.48C138.749 160.848 149.801 149.796 163.433 149.796C177.065 149.796 188.114 160.848 188.114 174.48Z" fill="#D9DAE8"/>
<path d="M76.6502 174.48C76.6502 188.112 65.6006 199.161 51.9689 199.161C38.3372 199.161 27.285 188.112 27.285 174.48C27.285 160.848 38.3372 149.796 51.9689 149.796C65.6006 149.796 76.6502 160.848 76.6502 174.48Z" fill="#D9DAE8"/>
</svg>
